<svg id="Paper" xmlns="http://www.w3.org/2000/svg" viewBox="0 0 200 200"><defs><style>.cls-1{fill:#fff;}.cls-1,.cls-2{stroke:#000;stroke-linecap:round;stroke-linejoin:round;stroke-width:5px;}.cls-2{fill:none;}</style></defs><g id="g5439"><g id="g3915-6-1-6-3-8-9-4"><path id="path3894-6-1-0-5-5-2-9" class="cls-1" d="M57.42,172.59c-3,8.32-10,7.33-17.16,4.15-10.15-4.5-23.64-25.05-25-34.75-1.23-8.89,2-15.86,8.88-16.77"/><path id="path3112-2-8-6-8-2-9-8" class="cls-1" d="M23.79,52.34C13,54.68,19,71.8,28.08,88.51c3.54,6.49-6.46,33-.3,49.86,4,11,19.06,31,29.66,33.79,18.16,4.73,34.11,1.64,50.06-6.85a80.9,80.9,0,0,0,15.76-11.26c14.23-13,61.36-29.22,64.37-33.35,8.35-11.48-7.9-18.76-16.84-15.78-4.32,1.45-37.33,8.31-32.93,4.63,10.8-9,24.89-18.64,38.72-26.93,20.69-12.41-5-34.53-24.25-22.71-9,5.54-17.2,9.1-37,21.93,7.39-11,17.41-27.47,25.79-37.08,13.82-15.84-14.53-31.1-31-11.37C98.82,46.82,81.23,73.24,57.11,90.9c.21-15.11-.72-45.63-33.31-38.56Z"/><path id="path3882-6-1-33-9-9-7-9" d="M114,79.37c-9.76,12.72-11.85,21.48-13.39,25.36,5.89-8.14,7.17-10.36,14.12-18.57a21.49,21.49,0,0,1,5-4.24Z"/><path id="path3884-6-1-2-9-6-6-0" d="M136.21,107.67c-7.2,6-14.43,15-17.69,22.22,3.88-3.35,10.5-9.18,16.3-14.39a9.6,9.6,0,0,1,6.33-2.5c-2-1.42-3.4-3.44-4.94-5.33Z"/><path id="path3886-8-5-4-3-7-0-8" class="cls-2" d="M57.06,157.3c12.39-3.64,15-5.86,20.68-8.53"/><path id="path3888-4-4-9-8-4-7-4" class="cls-2" d="M49.12,148.87c12.29-7.28,17.51-11.94,25.25-17.53"/><path id="path3890-1-8-5-1-8-9-7" class="cls-2" d="M39.94,138.53c7.71-6.1,10.78-9.69,15.29-14"/></g></g></svg>