<svg id="Rock" xmlns="http://www.w3.org/2000/svg" viewBox="0 0 200 200"><defs><style>.cls-1{fill:#fff;}.cls-1,.cls-2{stroke:#000;stroke-linecap:round;stroke-linejoin:round;stroke-width:5px;}.cls-2{fill:none;}</style></defs><g id="g32290"><path id="path32292" class="cls-1" d="M153.14,120.27c8.14,3.34,12.06-2.54,14.48-10,3.42-10.56-2.89-34.32-9.2-41.79-5.84-6.85-13.06-9.14-18.44-4.57"/><path id="path32294" class="cls-1" d="M85.27,46.24c18.92-4.11,51.7,9,62.16,29.13,5.28,10.4,10.34,34.9,5.3,44.65-8.55,16.68-21.56,26.5-38.51,32.72A81.17,81.17,0,0,1,95.32,157c-24,2.58-43-2.1-42.83-18.82-20.34-1.83-20.5-32.75-5.59-35.29-19.79-12.62-7.23-37.6,14.93-31.71C64,67.29,65.64,50.51,85.27,46.24Z"/><path id="path32296" d="M48,105.27c15.85,2.35,21.82-.57,26-1.08-10-1.23-12.59-1.27-23.14-3.36a14.11,14.11,0,0,1-5.82-2.45l.09,7.61a9.76,9.76,0,0,1,2.86-.72Z"/><path id="path32298" d="M50.92,140.41c9.4.38,21-.22,28.22-3.34-5.17-.13-18.51-1.36-26.3-1.4,0,0,0,0-1.92,4.74Z"/><path id="path32300" class="cls-2" d="M142,109.81c-11,6.8-14.42,7.27-20.14,9.71"/><path id="path32302" class="cls-2" d="M141,98.27c-13.65,4.3-20.63,5.09-29.91,7.11"/><path id="path32304" class="cls-2" d="M139.42,84.53c-9.7,1.68-14.46,1.58-20.62,2"/><path id="path32306" d="M60.21,68.55c21.15,1.46,28.18-6,37.85-11.79-9.69,8-12,17.06-36.45,16.87l-1.4-5.08Z"/></g></svg>