<svg id="Scissors" xmlns="http://www.w3.org/2000/svg" viewBox="0 0 200 200"><defs><style>.cls-1{fill:#fff;}.cls-1,.cls-2{stroke:#000;stroke-linecap:round;stroke-linejoin:round;stroke-width:5px;}.cls-2{fill:none;}</style></defs><g id="imagebot_10" data-name="imagebot 10"><path id="imagebot_18" data-name="imagebot 18" class="cls-1" d="M24.88,99.82c-8.69,1.4-11.17-5.22-11.83-13C12.13,75.72,23.67,54,31.52,48.18c7.24-5.34,14.8-5.93,19-.26"/><path id="imagebot_17" data-name="imagebot 17" class="cls-1" d="M107.81,43.15c-17.49-8.3-52.4-3-67.16,14.23-7.51,8.93-18,31.64-15.31,42.28,4.53,18.19,15,30.71,30.06,40.63a81.32,81.32,0,0,0,17.44,8.4c20.62,6.73,38.69-3.88,46-8.58,13.13,5.13,28.32,12.89,42.23,21,20.82,12.19,27.89-21,8.27-32.17-9.19-5.25-16.25-10.72-37-22,13.18,1.22,32.46,2.08,44.91,4.81,20.54,4.52,20.3-27.68-4.92-32.67-17.18-3.4-30.92-3.25-47.32-6.42-1.2-4.23,1-21-17.16-29.58Z"/><path id="imagebot_16" data-name="imagebot 16" d="M133.79,104.64c-15.84-2.45-24.52-.08-28.71.41,10,1.28,12.58,1.34,23.11,3.49a22.1,22.1,0,0,1,6.13,2.35Z"/><path id="imagebot_15" data-name="imagebot 15" d="M119.67,137.75c-8.77-3.42-20.14-5.43-28-4.84,9.57,3.51,17.12,6.27,26.31,9.4,0,0,.75-2.31,1.67-4.56Z"/><path id="imagebot_14" data-name="imagebot 14" class="cls-2" d="M38.12,92.16c9.17,9.13,12.39,10.36,17.4,14"/><path id="imagebot_13" data-name="imagebot 13" class="cls-2" d="M41.7,81.15C54,88.44,60.63,90.79,69.2,94.88"/><path id="imagebot_12" data-name="imagebot 12" class="cls-2" d="M46.36,68.13C55.43,72,60.09,73,66,74.78"/><path id="imagebot_11" data-name="imagebot 11" d="M127.14,70.59c-20.93-3.4-26.07-12.28-34.18-20.1,7.63,10,7.78,19.34,31.66,24.72l2.52-4.62Z"/></g></svg>